PathFileType	4	(X/Y/Z)	..\data\sprint.trc
DataRate	CameraRate	NumFrames	NumMarkers	Units	OrigDataRate	OrigDataStartFrame	OrigNumFrames
250.000000	250.000000	4	51	mm	250.000000	283	324
Frame#	Time	C7			RSH			LSH			MAN			T7			LARM			LELB			LFOREARM			LWR			RARM			RELB			RFOREARM			RWR			RASI			LASI			SACR			P1			P2			P3			LTHLP			LTHLD			LTHAP			LTHAD			LLEPI			LPAT			LTIAP			LTIAD			LTILAT			LLMAL			LHEEL			LMFS			LMFL			LP1MT			LTOE			LP5MT			RTHLP			RTHLD			RTHAP			RTHAD			RLEPI			RPAT			RTIAP			RTIAD			RTILAT			RLMAL			RHEEL			RMFS			RMFL			RP1MT			RTOE			RP5MT			
		X1	Y1	Z1	X2	Y2	Z2	X3	Y3	Z3	X4	Y4	Z4	X5	Y5	Z5	X6	Y6	Z6	X7	Y7	Z7	X8	Y8	Z8	X9	Y9	Z9	X10	Y10	Z10	X11	Y11	Z11	X12	Y12	Z12	X13	Y13	Z13	X14	Y14	Z14	X15	Y15	Z15	X16	Y16	Z16	X17	Y17	Z17	X18	Y18	Z18	X19	Y19	Z19	X20	Y20	Z20	X21	Y21	Z21	X22	Y22	Z22	X23	Y23	Z23	X24	Y24	Z24	X25	Y25	Z25	X26	Y26	Z26	X27	Y27	Z27	X28	Y28	Z28	X29	Y29	Z29	X30	Y30	Z30	X31	Y31	Z31	X32	Y32	Z32	X33	Y33	Z33	X34	Y34	Z34	X35	Y35	Z35	X36	Y36	Z36	X37	Y37	Z37	X38	Y38	Z38	X39	Y39	Z39	X40	Y40	Z40	X41	Y41	Z41	X42	Y42	Z42	X43	Y43	Z43	X44	Y44	Z44	X45	Y45	Z45	X46	Y46	Z46	X47	Y47	Z47	X48	Y48	Z48	X49	Y49	Z49	X50	Y50	Z50	X51	Y51	Z51	

284	1.132	4767.531738281252	1443.309326171875	240.2890014648439	4813.390136718752	1423.636352539063	421.4737548828127	4810.089843750002	1429.321655273438	81.18838500976565	4905.015136718752	1340.783935546875	263.217254638672	4685.887695312502	1259.738037109375	252.5638427734376	4870.954101562502	1227.023071289063	7.922197341918949	4923.314941406252	1097.721923828125	-6.102873325347904	5055.973632812502	1131.162353515625	49.24816513061526	5170.996582031252	1152.79736328125	102.2760314941407	4685.974121093752	1307.767211914063	520.7952270507815	4565.381835937502	1237.220947265625	571.9965820312502	4523.092285156252	1094.38134765625	587.2717285156252	4464.049804687502	976.9557495117192	596.6026000976565	4848.628417968752	965.7669067382817	340.4063110351564	4808.269042968752	948.182495117188	133.9405975341797	4663.139648437502	1025.434814453125	291.0898437500001	4635.339843750002	1003.612487792969	243.0764923095704	4652.467285156252	994.998901367188	346.1958618164064	4608.517089843752	947.981079101563	296.369354248047	4610.339843750002	683.821228027344	85.61282348632815	4578.613769531252	574.4363403320315	96.68713378906256	4741.747558593752	625.8859863281252	127.7250595092774	4689.452148437502	526.2902832031252	137.2547760009766	4540.439453125002	456.7457275390627	114.8096542358399	4623.255371093752	416.8748474121096	153.6558990478516	4455.591308593752	315.0015258789064	203.980926513672	4348.564453125002	227.7826385498048	225.8607482910157	4363.529785156252	300.3514099121095	148.4031219482422	4207.900390625002	148.8185272216797	198.7210540771486	4152.188476562502	168.8249969482422	252.9505920410157	4294.789062500002	81.29865264892581	238.6858825683595	4241.686523437502	70.35121154785159	187.7045898437501	4322.674316406252	16.84746360778809	278.3840942382814	4346.696289062502	22.35894775390626	240.9521331787111	4267.728027343752	7.78159332275391	163.2541809082032	4890.967773437502	759.3682861328127	453.2337951660159	4989.406250000002	699.465270996094	444.2402648925784	4995.831054687502	823.9220581054692	368.1181640625001	5068.541503906252	758.6422119140627	358.9427185058595	5074.120117187502	600.9505615234377	399.5760498046877	5154.561035156252	598.6618652343752	336.3741760253907	4894.759765625002	547.9510498046877	307.3052062988282	4766.067871093752	546.373718261719	297.9597167968751	4873.976562500002	583.128356933594	389.1133117675784	4640.181640625002	548.5838012695315	358.8532714843751	4604.830566406252	620.2146606445315	314.709197998047	4640.201660156252	447.1164550781252	306.8203735351564	4602.287109375002	482.8746032714846	363.1889648437501	4590.536621093752	387.7428283691409	262.7562561035157	4611.849121093752	367.800262451172	306.1261596679689	4563.289062500002	406.5987548828127	382.2214965820314	
285	1.136	4805.156250000002	1443.637939453125	241.1744384765626	4848.079589843752	1426.177612304688	421.9018554687502	4848.086914062502	1431.770629882813	84.13568115234378	4942.011718750002	1343.02392578125	266.5542602539064	4725.319335937502	1258.5771484375	250.3255004882814	4914.311035156252	1231.064819335938	11.59821510314942	4970.137695312502	1104.364135742188	-2.139411211013795	5100.415527343752	1148.25634765625	54.61444091796878	5212.660644531252	1180.537719726563	108.1976394653321	4716.472167968752	1317.93115234375	521.0069580078127	4592.895019531252	1251.700561523438	570.8377685546877	4547.096191406252	1109.933227539063	585.9331665039065	4485.864746093752	993.4877929687505	593.9204711914065	4890.067382812502	966.6697387695317	341.248260498047	4852.572265625002	942.3781127929692	135.7611999511719	4705.604003906252	1025.12158203125	288.275604248047	4678.094238281252	1002.943969726563	240.5487823486329	4693.512695312502	995.203247070313	343.3656311035157	4650.151367187502	947.845581054688	293.1628417968751	4641.024414062502	689.1029052734377	85.2579040527344	4600.604492187502	582.602722167969	96.86366271972662	4768.045410156252	625.812194824219	129.0975341796876	4709.613281250002	529.7793579101565	135.6724243164063	4555.499511718752	467.0629577636721	115.3754348754883	4637.093750000002	424.0457458496096	152.2219390869141	4468.725097656252	324.096649169922	201.7134704589845	4361.749511718752	236.4771575927736	222.1704406738282	4376.331054687502	311.9129943847657	146.3313446044922	4220.539550781252	158.9507141113282	194.2947540283204	4167.339843750002	182.3292083740235	248.1923675537111	4302.637695312502	83.01301574707034	235.2281341552736	4249.252441406252	75.13116455078128	184.8372039794922	4322.901855468752	17.6579875946045	278.2832031250001	4346.169433593752	22.89708900451661	240.6667327880861	4269.289062500002	8.959654808044437	162.4558563232422	4933.902343750002	763.9055786132815	451.9370727539065	5035.749023437502	708.665954589844	441.4273681640627	5037.320800781252	835.6782836914067	369.2333984375001	5112.660644531252	773.538208007813	358.1359252929689	5127.016113281252	614.4945068359377	396.6965332031252	5206.893066406252	616.865661621094	333.0952453613282	4950.589843750002	545.3665771484377	306.5870666503907	4822.429199218752	532.5195922851565	297.5640869140626	4926.646972656252	580.5576171875002	387.3487548828127	4696.441894531252	525.056823730469	358.0083007812501	4654.779296875002	592.0093383789065	313.9988098144532	4706.017089843752	422.7524108886721	308.2068481445314	4665.475585937502	455.8836059570315	364.1820678710939	4662.337890625002	356.9356994628907	265.2846984863282	4685.601562500002	341.3717346191407	308.8141479492189	4633.935546875002	376.4773864746095	384.5509338378909	
286	1.14	4842.604980468752	1443.657470703125	242.0713653564454	4883.045410156252	1428.572143554688	422.0571289062502	4885.673339843752	1433.66748046875	87.11254882812503	4979.235351562502	1345.032348632813	269.8462829589845	4764.876464843752	1257.188598632813	247.8867034912111	4957.132324218752	1234.953002929688	15.23093032836915	5016.641601562502	1110.911743164063	1.780360817909242	5143.245117187502	1165.327514648438	59.76791000366214	5251.907714843752	1207.800170898438	113.8138427734376	4747.394531250002	1328.3291015625	521.027770996094	4621.009277343752	1266.35400390625	569.0722656250002	4572.030761718752	1125.545166015625	584.4690551757815	4508.759277343752	1009.957702636719	591.1497802734377	4935.478027343752	967.5961303710942	342.1351318359376	4896.699707031252	938.4143676757817	137.904525756836	4748.289062500002	1024.796875	285.3829650878907	4720.757812500002	1002.51416015625	237.7651672363282	4734.719726562502	995.236938476563	340.5757446289064	4692.048339843752	947.8505249023442	290.7267150878907	4672.165039062502	695.318298339844	84.95967102050784	4624.502929687502	591.8465576171877	96.83836364746099	4795.819335937502	627.9600219726565	130.8229064941407	4729.852539062502	533.8066406250002	135.2642211914063	4572.404785156252	479.1938476562502	116.356056213379	4651.070312500002	432.2147521972659	152.0272674560547	4484.122558593752	334.7473449707032	199.3821105957032	4377.616210937502	246.1660156250001	217.819793701172	4390.849121093752	324.9465332031251	144.506576538086	4236.218750000002	169.1963958740235	189.1730499267579	4185.578613281252	196.6014556884767	243.3753662109376	4312.046386718752	84.80264282226565	231.3155517578126	4257.437988281252	81.37041473388675	181.6631622314454	4323.815917968752	19.12304306030274	277.7193908691407	4347.388671875002	23.46204948425294	239.8285980224611	4271.639160156252	11.34453868865967	160.8844604492188	4981.931152343752	769.6586303710942	451.204528808594	5081.419433593752	717.2854614257815	438.5148925781252	5078.381835937502	846.5510253906255	370.3530883789064	5156.076660156252	787.2866210937505	357.3797912597657	5177.536132812502	627.514099121094	393.912780761719	5257.608886718752	634.2913818359377	330.2683410644532	5006.395996093752	542.6187133789065	306.739227294922	4881.364257812502	518.6928710937502	296.686981201172	4983.603515625002	578.1036376953127	384.7080383300784	4754.920410156252	501.3431091308596	357.780242919922	4707.392578125002	563.2730712890627	313.2286987304689	4773.647949218752	399.7378845214846	309.2368164062501	4730.615234375002	429.722839355469	365.1373901367189	4737.593750000002	331.1760864257814	267.849090576172	4761.332519531252	316.614715576172	311.5898742675782	4706.483398437502	347.6592712402345	386.9006652832034	
287	1.144	4879.875488281252	1443.366333007813	242.6620178222657	4918.343261718752	1430.617919921875	421.9409179687502	4922.750000000002	1434.86572265625	90.17926788330081	5016.312011718752	1346.703491210938	272.7920227050782	4804.432617187502	1255.620971679688	245.3857269287111	4999.890625000002	1238.787475585938	18.62159156799317	5062.571289062502	1117.480712890625	5.762195587158205	5185.118164062502	1182.181640625	64.31803894042972	5289.083496093752	1234.334106445313	118.9257125854493	4779.043457031252	1338.767822265625	520.4949951171877	4649.861328125002	1280.901733398438	566.7666015625002	4598.208984375002	1141.128540039063	582.939147949219	4532.937500000002	1026.144165039063	588.4918212890627	4977.129882812502	966.3671875000005	343.528778076172	4940.124023437502	935.7973632812505	139.9244689941407	4791.136230468752	1024.453979492188	282.3204345703126	4761.445800781252	1002.583618164063	232.8535614013673	4776.641113281252	995.1808471679692	339.0539855957032	4733.147460937502	948.2444458007817	287.7237548828126	4703.863281250002	702.4129028320315	84.86862945556643	4650.444335937502	601.6251220703127	97.20513153076178	4825.937500000002	630.0531005859377	132.5290985107422	4753.015136718752	538.3260498046877	137.2263488769532	4591.407226562502	492.9713439941409	118.1000671386719	4666.557128906252	441.5347900390627	153.4631652832032	4501.463867187502	345.7945861816407	198.2392730712892	4395.939941406252	256.5900268554689	213.5061187744142	4407.556152343752	338.998016357422	142.8173828125001	4255.344238281252	180.2030639648438	183.0803222656251	4207.260253906252	212.364959716797	238.2129821777345	4322.143066406252	88.39446258544925	227.391326904297	4267.618652343752	89.41999053955081	177.6864318847657	4324.279785156252	21.69077491760255	276.850311279297	4349.315429687502	23.99294471740723	238.3292999267579	4274.685058593752	17.09006309509278	158.580062866211	5025.739257812502	775.4837036132817	450.285827636719	5126.559082031252	725.7005615234377	435.7998657226565	5119.266601562502	856.4111938476567	371.1482238769532	5199.269042968752	799.8767089843755	356.556610107422	5227.814453125002	639.809265136719	392.3682861328127	5306.961914062502	650.588073730469	328.1303100585939	5062.918945312502	539.467956542969	306.6950073242189	4940.267578125002	504.5009765625002	296.8371887207032	5037.287597656252	574.8586425781252	383.2042846679689	4814.958007812502	478.0504150390627	357.4717712402345	4762.020996093752	534.643493652344	312.7912597656251	4843.026855468752	377.5805969238282	310.8143615722657	4797.879882812502	404.4091796875002	366.3407592773439	4814.700683593752	305.4428100585939	270.6080627441407	4838.521972656252	293.7126770019532	314.6172790527345	4781.117187500002	320.9359436035157	389.4021301269534	
